<svg width="186" height="51" viewBox="0 0 186 51" fill="none" xmlns="http://www.w3.org/2000/svg">
<rect width="186" height="51" rx="5" fill="#B78A8A"/>
<path d="M42.346 19.856L44.866 33.368L47.05 33.584C47.05 34.016 46.914 34.488 46.642 35H41.122L41.05 34.16C41.53 33.952 42.122 33.784 42.826 33.656L40.258 20.192L37.09 33.848H34.714L30.346 20.144L28.402 33.368L30.442 33.56C30.442 34.008 30.306 34.488 30.034 35H24.514L24.442 34.16C25.146 33.904 25.85 33.712 26.554 33.584L28.666 19.664C27.69 19.52 26.914 19.352 26.338 19.16L26.434 18.2H32.026L35.842 31.352H35.938L38.914 18.2H44.266C44.538 18.712 44.674 19.208 44.674 19.688C43.634 19.8 42.858 19.856 42.346 19.856ZM50.7623 39.464C51.3703 39.464 51.9623 38.88 52.5383 37.712C53.1303 36.544 53.4663 35.64 53.5463 35H52.9703L49.1783 24.44L47.1623 24.248C47.1623 23.8 47.2983 23.32 47.5703 22.808H53.0903L53.1623 23.648C52.6503 23.872 52.0823 24.048 51.4583 24.176L53.5463 30.728L54.0983 32.84H54.3383L57.2183 24.176L55.2023 23.648L55.2743 22.808H60.6743C60.9463 23.32 61.0823 23.8 61.0823 24.248C60.4263 24.328 59.7703 24.384 59.1143 24.416C58.6983 25.632 58.0743 27.448 57.2423 29.864C56.4263 32.28 55.7783 34.152 55.2983 35.48C54.8343 36.808 54.3703 37.888 53.9063 38.72C53.4423 39.552 52.9783 40.104 52.5143 40.376C52.0663 40.664 51.5623 40.808 51.0023 40.808C50.0103 40.808 49.0823 40.616 48.2183 40.232L47.7863 40.016C47.8983 38.192 47.9703 37.192 48.0023 37.016C48.1303 36.968 48.5943 36.944 49.3943 36.944L50.2103 39.392C50.3543 39.44 50.5383 39.464 50.7623 39.464ZM74.2692 18.2C76.3012 18.2 77.8052 18.536 78.7812 19.208C79.7732 19.864 80.2692 21.032 80.2692 22.712C80.2692 24.392 79.7812 25.728 78.8052 26.72C77.8292 27.696 76.2532 28.184 74.0772 28.184H72.0612L71.9892 33.392L73.8612 33.56C73.8612 34.008 73.7252 34.488 73.4532 35H68.0532L67.9812 34.184C68.6532 33.928 69.3412 33.736 70.0452 33.608C69.9492 27.368 69.8692 22.728 69.8052 19.688C69.3732 19.608 68.6692 19.416 67.6932 19.112L67.8132 18.2H74.2692ZM73.8372 26.624C75.2132 26.608 76.2612 26.264 76.9812 25.592C77.7012 24.904 78.0612 24 78.0612 22.88C78.0612 21.76 77.7092 20.984 77.0052 20.552C76.3012 20.104 75.1732 19.88 73.6212 19.88C73.3332 19.88 72.8452 19.888 72.1572 19.904C72.1572 19.92 72.1332 22.168 72.0852 26.648L73.8372 26.624ZM87.1619 33.848C88.5059 33.848 89.4099 33.432 89.8739 32.6C90.3539 31.752 90.5939 30.552 90.5939 29C90.5939 26.536 90.0499 24.992 88.9619 24.368C88.5139 24.112 87.8819 23.984 87.0659 23.984C86.2659 23.984 85.5059 24.152 84.7859 24.488C84.1459 25.72 83.8259 27.152 83.8259 28.784C83.8259 30.352 84.0339 31.56 84.4499 32.408C84.9299 33.368 85.8339 33.848 87.1619 33.848ZM81.6179 29C81.6179 26.968 82.0819 25.384 83.0099 24.248C83.9379 23.096 85.3699 22.52 87.3059 22.52C89.2419 22.52 90.6419 23.048 91.5059 24.104C92.3699 25.144 92.8019 26.688 92.8019 28.736C92.8019 30.784 92.3379 32.392 91.4099 33.56C90.4979 34.728 89.1059 35.312 87.2339 35.312C85.3619 35.312 83.9539 34.768 83.0099 33.68C82.0819 32.592 81.6179 31.032 81.6179 29ZM101.9 24.536C101.82 24.456 101.644 24.416 101.372 24.416C101.1 24.416 100.692 24.512 100.148 24.704C99.62 24.896 99.14 25.12 98.708 25.376C98.612 28.928 98.548 31.592 98.516 33.368L100.532 33.56C100.532 34.008 100.396 34.488 100.124 35H94.604L94.532 34.16C95.268 33.904 95.988 33.712 96.692 33.584C96.596 29.52 96.516 26.512 96.452 24.56C95.572 24.512 94.868 24.416 94.34 24.272L94.436 23.024C95.284 22.784 96.54 22.664 98.204 22.664C98.46 23.064 98.62 23.576 98.684 24.2C100.524 23.08 101.62 22.52 101.972 22.52C102.324 22.52 102.732 22.592 103.196 22.736C103.66 22.864 104.004 23.008 104.228 23.168C104.228 24.768 104.076 26.072 103.772 27.08C103.548 27.144 103.284 27.176 102.98 27.176C102.692 27.176 102.492 27.168 102.38 27.152L101.9 24.536ZM107.089 33.512L106.897 24.464H105.049L104.977 23.624C105.137 23.512 105.601 23.304 106.369 23L108.337 19.928C108.657 19.96 108.905 20.04 109.081 20.168L109.057 22.808C110.257 22.808 111.241 22.888 112.009 23.048C112.009 23.48 111.873 23.952 111.601 24.464H109.009C108.977 26.384 108.945 29.296 108.913 33.2C109.809 33.248 110.705 33.408 111.601 33.68L111.577 34.52C111.353 34.664 110.777 34.832 109.849 35.024C108.937 35.216 108.185 35.312 107.593 35.312C107.513 35.184 107.409 34.912 107.281 34.496C107.153 34.064 107.089 33.736 107.089 33.512ZM121.673 20.912L121.289 20.888H121.193L120.449 18.536C120.097 18.472 119.785 18.44 119.513 18.44C118.729 18.44 118.177 18.744 117.857 19.352C117.553 19.96 117.401 21.024 117.401 22.544V22.832H117.761C118.865 22.832 119.713 22.896 120.305 23.024C120.321 23.024 120.353 23.032 120.401 23.048C120.385 23.512 120.249 23.984 119.993 24.464H117.257V33.368H117.617C118.241 33.368 118.793 33.4 119.273 33.464C119.753 33.528 120.009 33.576 120.041 33.608C120.041 34.024 119.905 34.488 119.633 35H113.345L113.273 34.16C114.009 33.904 114.681 33.712 115.289 33.584V24.464H113.441L113.369 23.624C113.945 23.4 114.585 23.224 115.289 23.096V22.112C115.289 20.304 115.625 18.984 116.297 18.152C116.569 17.832 116.953 17.568 117.449 17.36C117.945 17.136 118.521 17.024 119.177 17.024C120.457 17.024 121.673 17.304 122.825 17.864C122.825 18.856 122.729 19.848 122.537 20.84C122.361 20.888 122.073 20.912 121.673 20.912ZM128.037 33.848C129.381 33.848 130.285 33.432 130.749 32.6C131.229 31.752 131.469 30.552 131.469 29C131.469 26.536 130.925 24.992 129.837 24.368C129.389 24.112 128.757 23.984 127.941 23.984C127.141 23.984 126.381 24.152 125.661 24.488C125.021 25.72 124.701 27.152 124.701 28.784C124.701 30.352 124.909 31.56 125.325 32.408C125.805 33.368 126.709 33.848 128.037 33.848ZM122.493 29C122.493 26.968 122.957 25.384 123.885 24.248C124.813 23.096 126.245 22.52 128.181 22.52C130.117 22.52 131.517 23.048 132.381 24.104C133.245 25.144 133.677 26.688 133.677 28.736C133.677 30.784 133.213 32.392 132.285 33.56C131.373 34.728 129.981 35.312 128.109 35.312C126.237 35.312 124.829 34.768 123.885 33.68C122.957 32.592 122.493 31.032 122.493 29ZM138.647 17.168C139.143 17.168 139.495 17.184 139.703 17.216C139.703 17.776 139.599 18.416 139.391 19.136C139.247 28.576 139.175 33.32 139.175 33.368L141.191 33.56C141.191 34.008 141.055 34.488 140.783 35H135.263L135.191 34.16C135.927 33.904 136.647 33.712 137.351 33.584L137.111 19.064C136.231 19.016 135.527 18.92 134.999 18.776L135.095 17.528C135.911 17.288 137.095 17.168 138.647 17.168ZM146.805 20.528C146.389 20.624 145.981 20.672 145.581 20.672C145.197 20.672 144.813 20.648 144.429 20.6C144.333 20.152 144.285 19.704 144.285 19.256C144.285 18.792 144.301 18.448 144.333 18.224C144.685 18.144 145.053 18.104 145.437 18.104C145.837 18.104 146.261 18.12 146.709 18.152C146.805 18.568 146.853 18.976 146.853 19.376C146.853 19.76 146.837 20.144 146.805 20.528ZM142.437 23.048C143.797 22.808 144.853 22.688 145.605 22.688C146.357 22.688 146.837 22.704 147.045 22.736C147.045 23.12 146.997 23.544 146.901 24.008C146.805 24.472 146.749 24.696 146.733 24.68L146.517 33.368L148.533 33.56C148.533 34.008 148.397 34.488 148.125 35H142.605L142.533 34.16C143.269 33.904 143.989 33.712 144.693 33.584C144.597 29.584 144.517 26.584 144.453 24.584C143.525 24.584 142.821 24.488 142.341 24.296L142.437 23.048ZM155.412 33.848C156.756 33.848 157.66 33.432 158.124 32.6C158.604 31.752 158.844 30.552 158.844 29C158.844 26.536 158.3 24.992 157.212 24.368C156.764 24.112 156.132 23.984 155.316 23.984C154.516 23.984 153.756 24.152 153.036 24.488C152.396 25.72 152.076 27.152 152.076 28.784C152.076 30.352 152.284 31.56 152.7 32.408C153.18 33.368 154.084 33.848 155.412 33.848ZM149.868 29C149.868 26.968 150.332 25.384 151.26 24.248C152.188 23.096 153.62 22.52 155.556 22.52C157.492 22.52 158.892 23.048 159.756 24.104C160.62 25.144 161.052 26.688 161.052 28.736C161.052 30.784 160.588 32.392 159.66 33.56C158.748 34.728 157.356 35.312 155.484 35.312C153.612 35.312 152.204 34.768 151.26 33.68C150.332 32.592 149.868 31.032 149.868 29Z" fill="white"/>
</svg>
