<?xml version="1.0" encoding="UTF-8"?><svg id="_レイヤー_2" xmlns="http://www.w3.org/2000/svg" viewBox="0 0 20 24"><defs><style>.cls-1{fill:#fff;fill-rule:evenodd;}</style></defs><g id="_レイヤー_1-2"><path class="cls-1" d="M9.624,15.859l-.519,.653c-.312,.395-.878,.477-1.291,.187l-3.519-2.474c-.337-.237-.42-.7-.186-1.04l2.884-4.185v-1.5c0-.31,.259-.5,.5-.5,.276,0,.5,.224,.5,.5v.728l2.393-1.3c-.248-.593-.386-1.244-.386-1.928,0-2.76,2.24-5,5-5s5,2.24,5,5-2.24,5-5,5c-1.72,0-3.237-.87-4.138-2.193l-2.877,1.563-.782,2.541,1.309,.872,2.948-2.287c.231-.179,.535-.216,.811-.122,.994,.338,3.429,1.201,4.398,1.567,.244,.09,.38,.351,.316,.604l-.006,.023c-.071,.286-.347,.46-.637,.42-1.159-.156-3.986-.573-3.986-.573l-2.109,2.659,.957,.674c.917-1.07,2.277-1.748,3.796-1.748,2.76,0,5,2.24,5,5s-2.24,5-5,5-5-2.24-5-5c0-.883,.229-1.712,.632-2.433,0,0-1.008-.708-1.008-.708Zm1.831,1.288c-.291,.554-.455,1.185-.455,1.853,0,2.208,1.792,4,4,4s4-1.792,4-4-1.792-4-4-4c-1.18,0-2.241,.512-2.974,1.326l2.529,1.779c.133-.067,.285-.105,.445-.105,.552,0,1,.448,1,1s-.448,1-1,1-1-.448-1-1l.002-.061s-2.547-1.792-2.547-1.792Zm.292-9.821c.726,1.014,1.913,1.674,3.253,1.674,2.208,0,4-1.792,4-4s-1.792-4-4-4-4,1.792-4,4c0,.511,.096,.998,.27,1.447l2.731-1.483c.019-.535,.459-.964,.999-.964,.552,0,1,.448,1,1s-.448,1-1,1c-.194,0-.377-.056-.53-.152l-2.723,1.478ZM0,10.923c0-1.147,.931-2.077,2.077-2.077s2.077,.93,2.077,2.077-.93,2.077-2.077,2.077S0,12.069,0,10.923Z"/></g></svg>